# xmcd CD database file
#
# Track frame offsets:
#	150
#	3150
#	16200
#	38700
#	51600
#	66075
#	88800
#	105450
#	119288
#	145875
#
# Disc length: 2068 seconds
#
# Revision: 0
# Processed by: cddbd v1.5.1PL0 Copyright (c) Steve Scherf et al.
# Submitted via: CDex 1.50beta10
#
DISCID=7f08120a
DTITLE=Clever Dynamos Records - Ridge Raver Revolution ver0.765
DYEAR=1998
DGENRE=Game
TTITLE0=HEX-DAY(Shory JUNK Mix) - X-DAY2
TTITLE1=DESSERT STORM RECYCLE - F/A
TTITLE2=5 - XEVIOUS 3DG+
TTITLE3=NIPPON Tech - Rave Racer
TTITLE4=Loop the Loop - SKYKID
TTITLE5=T.B.R.K - KNUCKLE HEADS
TTITLE6=Gen-pet Set up,Brake up - 源平討魔伝
TTITLE7=Pop De RARRY 3hours - NEW RALLY-X
TTITLE8=4x Drive - F/A
TTITLE9=WELCOME TO DIG-DUG THEATRE - DIG-DUG II
EXTD=YEAR: 1998
EXTT0=
EXTT1=
EXTT2=
EXTT3=
EXTT4=
EXTT5=
EXTT6=
EXTT7=
EXTT8=
EXTT9=
PLAYORDER=
